<svg preserveAspectRatio="none" overflow="visible" style="display: block;" width="19" height="19" viewBox="0 0 19 19" fill="none" xmlns="http://www.w3.org/2000/svg">
<g id="bookmark">
<path id="Vector" d="M14.5785 2.83876C14.2815 2.54182 13.8788 2.375 13.4588 2.375H5.54121C5.12124 2.375 4.71847 2.54182 4.4215 2.83876C4.12453 3.13569 3.9577 3.53843 3.9577 3.95836V15.8336C3.95774 15.9722 3.9942 16.1084 4.06341 16.2285C4.13263 16.3487 4.23218 16.4485 4.35211 16.5181C4.47203 16.5877 4.60813 16.6245 4.74678 16.625C4.88543 16.6255 5.02177 16.5895 5.14217 16.5208L8.71458 14.4798C8.95379 14.3432 9.22451 14.2713 9.5 14.2713C9.77549 14.2713 10.0462 14.3432 10.2854 14.4798L13.8578 16.5208C13.9782 16.5895 14.1146 16.6255 14.2532 16.625C14.3919 16.6245 14.528 16.5877 14.6479 16.5181C14.7678 16.4485 14.8674 16.3487 14.9366 16.2285C15.0058 16.1084 15.0423 15.9722 15.0423 15.8336V3.95836C15.0423 3.53843 14.8755 3.13569 14.5785 2.83876Z" stroke="#D9B66F" stroke-linecap="round"/>
</g>
</svg>
